REM MD5 6fa52600f97e551313acceb96ce27d99
FILE "Master of Monsters - Disciples of Gaia (Europe) (En,Fr,De).bin" BINARY
  TRACK 01 MODE2/2352
    INDEX 01 00:00:00
  TRACK 02 AUDIO
    INDEX 00 17:23:19
    INDEX 01 17:25:19
  TRACK 03 AUDIO
    INDEX 00 18:43:37
    INDEX 01 18:45:37
  TRACK 04 AUDIO
    INDEX 00 20:18:72
    INDEX 01 20:20:72
  TRACK 05 AUDIO
    INDEX 00 22:05:39
    INDEX 01 22:07:39
  TRACK 06 AUDIO
    INDEX 00 24:05:37
    INDEX 01 24:07:37
REM LEADOUT 25:41:51
